<svg version="1.1" id="Layer_1" xmlns="http://www.w3.org/2000/svg" x="0" y="0" viewBox="0 0 65 65" xml:space="preserve"><path d="M6.52 41.09c-1.82-2.29-4.93-2.88-4.93-2.88s-.16 3.15 1.66 5.46c1.82 2.31 4.94 2.9 4.94 2.9.04-.04 2.26-2.24 2.48-5.14C10.89 38.5 9 35.95 9 35.95s-2.26 2.21-2.48 5.14m-.16 8.67s1.05 2.98 3.62 4.41c2.57 1.44 5.67.8 5.67.8.02-.06 1.23-2.93.33-5.7-.91-2.8-3.63-4.43-3.63-4.43s-1.24 2.9-.33 5.7c-2.56-1.42-5.66-.78-5.66-.78m9.01 9.01s2.4 2.37 5.54 2.56c3.14.19 5.83-1.88 5.83-1.88-.01-.07-.18-3.39-2.34-5.64-2.18-2.26-5.56-2.56-5.56-2.56s.16 3.37 2.34 5.63c-3.13-.17-5.81 1.89-5.81 1.89M4.98 35.58c.05-.03 2.65-1.44 3.63-4.03.99-2.61-.06-5.44-.06-5.44s-2.64 1.41-3.63 4.02c-1.05-2.57-3.73-3.93-3.73-3.93s-.99 2.83.06 5.42c1.04 2.59 3.73 3.96 3.73 3.96m5.16-13.63c1.79-1.96 1.85-4.83 1.85-4.83s-2.83.32-4.62 2.28c-.03-2.64-1.92-4.78-1.92-4.78s-1.86 2.15-1.84 4.81c.02 2.66 1.91 4.8 1.91 4.8.05 0 2.85-.34 4.62-2.28m4.41-7.5c2-.98 2.93-3.19 2.93-3.19s-2.3-.63-4.3.35c.79-2.06-.02-4.32-.02-4.32s-2.12 1.1-2.92 3.18c-.81 2.07 0 4.33 0 4.33.05.01 2.33.62 4.31-.35m7.6-6.22c2.35-1.06 3.37-3.89 3.37-3.89s-2.8-1.12-5.15-.07C18.02 5.33 17 8.16 17 8.16s2.8 1.13 5.15.07m36.48 32.86c-.22-2.93-2.48-5.14-2.48-5.14s-1.89 2.55-1.67 5.48c.22 2.9 2.44 5.1 2.48 5.14 0 0 3.12-.59 4.94-2.9 1.82-2.3 1.66-5.46 1.66-5.46s-3.11.59-4.93 2.88m-5.83 3.75s-2.72 1.63-3.63 4.43c-.9 2.77.31 5.65.33 5.7 0 0 3.1.64 5.67-.8 2.57-1.43 3.62-4.41 3.62-4.41s-3.1-.64-5.66.78c.91-2.8-.33-5.7-.33-5.7m-12.05 8.97c-2.16 2.25-2.34 5.58-2.35 5.64 0 0 2.69 2.07 5.83 1.88 3.14-.19 5.54-2.56 5.54-2.56s-2.68-2.06-5.81-1.89c2.18-2.26 2.34-5.63 2.34-5.63s-3.37.29-5.55 2.56M56.6 26.12s-1.05 2.82-.06 5.44c.98 2.59 3.58 4 3.63 4.03 0 0 2.68-1.37 3.73-3.95 1.05-2.59.06-5.42.06-5.42s-2.68 1.36-3.73 3.93c-.98-2.62-3.63-4.03-3.63-4.03m-1.59-4.17c1.77 1.95 4.57 2.28 4.62 2.29 0 0 1.89-2.15 1.91-4.8.02-2.66-1.85-4.81-1.85-4.81s-1.89 2.14-1.92 4.78c-1.78-1.96-4.62-2.28-4.62-2.28s.07 2.85 1.86 4.82m-7.35-10.69s.94 2.21 2.93 3.19c1.98.97 4.26.37 4.3.36 0 0 .81-2.26 0-4.33-.81-2.07-2.92-3.18-2.92-3.18s-.81 2.25-.02 4.32c-1.99-.98-4.29-.36-4.29-.36M43 8.23c2.35 1.06 5.15-.07 5.15-.07s-1.02-2.83-3.37-3.89-5.15.07-5.15.07S40.65 7.17 43 8.23m-7.16 50.59a3.271 3.271 0 10-3.27 3.27 3.278 3.278 0 003.27-3.27M16.12 31.61c.01 7.61 3.18 12.52 6.78 15.8 3.6 3.26 8.06 4.9 9.64 5.39 2.88-.95 6.01-2.76 8.12-4.41 4.22-3.31 8.35-8.53 8.36-16.78l.01-13.28a56.24 56.24 0 00-16.47-2.47c-5.56 0-11.12.82-16.47 2.47l.03 13.28z" fill="#003149"/><text transform="translate(22.471 38.453)" font-size="18.238" font-family="Montserrat-Regular" fill="#b9906c">35</text></svg>