<svg version="1.1" id="Layer_1" xmlns="http://www.w3.org/2000/svg" x="0" y="0" viewBox="0 0 56.48 56.48" xml:space="preserve"><style>.st0{fill:#003149}</style><path class="st0" d="M28.24 56.48c15.6 0 28.24-12.64 28.24-28.24C56.47 12.64 43.83 0 28.24 0 12.64 0 0 12.64 0 28.24c0 15.59 12.64 28.23 28.24 28.24m0-53.5C42.19 3 53.47 14.29 53.5 28.24c-.03 13.95-11.31 25.23-25.26 25.26C14.29 53.47 3 42.19 2.98 28.24 3 14.29 14.29 3 28.24 2.98"/><path class="st0" d="M9.57 34.25c-.61-1.89-.94-3.9-.94-6 .02-10.83 8.78-19.58 19.6-19.6 10.82.02 19.58 8.78 19.6 19.6 0 2.03-.31 3.99-.88 5.83l2.29.71c.64-2.07.99-4.27.99-6.54 0-12.15-9.85-22-22-22s-22 9.85-22 22c0 2.35.37 4.61 1.05 6.73l2.29-.73z"/><path class="st0" d="M28.24 49.84c8.9 0 16.57-5.27 20.08-12.85l-4.34.83-1.99-3.05c-2.56 4.99-7.74 8.41-13.74 8.42-6.02-.01-11.22-3.46-13.77-8.48l-2.4 2.8-3.94-.58c3.49 7.62 11.17 12.91 20.1 12.91"/><path d="M22.56 25.57l3.26 7.07s5.4-14.21 13.86-18.65c-.21 3.17-1 4.62-.2 8.27-3.71.85-10.86 12.7-13.34 17.35-3.51-4.44-6.41-9.43-9.3-10.49l5.72-3.55z" fill-rule="evenodd" clip-rule="evenodd" fill="#b78d6b"/></svg>