<svg version="1.1" id="Layer_1" xmlns="http://www.w3.org/2000/svg" x="0" y="0" viewBox="0 0 65 65" xml:space="preserve"><path d="M56.11 3.97c-3.26-.59-4.89-.57-8.14-.23-3.26.33-4.88.71-8.14 1.55-3.26.84-4.88 1.38-8.14 2.32-5.7 1.66-8.55 2.59-14.25 2.83-5.21.23-8.06-.05-12.86-2.66v-1.9c.83-.47 1.39-1.35 1.39-2.38a2.78 2.78 0 00-5.56 0c0 1.03.56 1.91 1.39 2.39v57.28h2.78v-17.9c2.2 1.18 3.69 1.65 6.25 2.17 3.05.62 4.58.65 7.63.42 3.05-.23 4.58-.53 7.63-1.26s4.58-1.21 7.63-2.11c3.05-.9 4.58-1.38 7.63-2.11s4.58-1.04 7.63-1.26c3.05-.23 4.58-.2 7.63.42s4.58 1.15 7.63 2.95v-4.16c-3.05-1.8-4.58-2.33-7.63-2.95-3.05-.62-4.58-.65-7.63-.42-3.05.23-4.58.53-7.63 1.26s-4.58 1.21-7.63 2.11c-3.05.9-4.58 1.38-7.63 2.11s-4.58 1.04-7.63 1.26c-3.05.23-4.58.2-7.63-.42-2.55-.52-4.05-.98-6.25-2.17v-4.16c2.2 1.18 3.69 1.65 6.25 2.17 3.05.62 4.58.65 7.63.42 3.05-.22 4.58-.53 7.63-1.26s4.58-1.21 7.63-2.11c3.05-.9 4.58-1.38 7.63-2.11s4.58-1.04 7.63-1.26c3.05-.23 4.58-.2 7.63.42s4.58 1.15 7.63 2.95V32c-3.05-1.8-4.58-2.33-7.63-2.95-3.05-.62-4.58-.65-7.63-.42-3.05.23-4.58.53-7.63 1.26S36.77 31.1 33.72 32c-3.05.9-4.58 1.38-7.63 2.11s-4.58 1.04-7.63 1.26c-3.05.23-4.58.2-7.63-.42-2.55-.52-4.05-.98-6.25-2.17v-4.17c4.8 2.61 7.65 2.89 12.86 2.66 5.7-.25 8.55-1.18 14.25-2.84 3.26-.95 4.88-1.48 8.14-2.32 3.26-.84 4.88-1.22 8.14-1.55 3.26-.33 4.88-.35 8.14.23 3.26.59 4.88 1.13 8.14 3.05v-4.16c-3.26-1.92-4.88-2.46-8.14-3.05-3.26-.59-4.89-.57-8.14-.23-3.26.33-4.88.71-8.14 1.56-3.26.84-4.88 1.38-8.14 2.32V20.1c3.26-.95 4.88-1.48 8.14-2.32 3.26-.84 4.88-1.22 8.14-1.55 3.26-.33 4.88-.36 8.14.23 3.26.59 4.88 1.13 8.14 3.05v-4.16c-3.26-1.92-4.88-2.46-8.14-3.05-3.26-.59-4.89-.57-8.14-.23-3.26.33-4.88.71-8.14 1.55-3.26.84-4.88 1.38-8.14 2.32v-4.16c3.26-.95 4.88-1.48 8.14-2.32 3.26-.84 4.88-1.22 8.14-1.55 3.26-.33 4.88-.36 8.14.23 3.26.59 4.88 1.13 8.14 3.05V7.02C61 5.1 59.37 4.56 56.11 3.97M25.37 14.84c.17.5.26.75.43 1.25.56-.13.84-.2 1.39-.34-.45.45-.68.67-1.13 1.12.17.5.26.75.43 1.25-.45-.23-.68-.34-1.13-.57-.45.44-.68.66-1.13 1.08.17-.58.26-.87.43-1.45l-1.13-.6c.56-.11.84-.17 1.39-.29.19-.58.28-.86.45-1.45m-2.72-2.25c.17-.57.25-.86.43-1.43.17.51.26.76.43 1.27.56-.11.84-.17 1.39-.29-.45.43-.68.65-1.13 1.07.17.51.25.76.43 1.27-.45-.24-.68-.36-1.13-.61-.45.42-.67.63-1.13 1.04.17-.57.26-.86.43-1.43-.45-.26-.68-.39-1.13-.66.57-.08.85-.13 1.41-.23m-2.7 3.21l.43 1.31c.56-.07.84-.11 1.39-.2-.45.41-.68.61-1.13 1 .17.52.26.78.43 1.3-.45-.27-.68-.41-1.12-.69-.45.39-.68.58-1.13.95.17-.56.26-.84.43-1.39-.45-.29-.68-.44-1.12-.75.56-.04.84-.06 1.39-.12.16-.57.25-.85.43-1.41m-2.73-2.6c.17-.55.26-.82.43-1.38.17.53.26.8.43 1.33.56-.04.84-.06 1.39-.11-.45.38-.68.57-1.13.94.17.53.26.8.43 1.33-.45-.3-.68-.45-1.13-.76-.45.36-.68.53-1.13.87.17-.54.26-.82.43-1.37-.45-.32-.68-.49-1.13-.83.57 0 .85 0 1.41-.02m-2.71 2.79c.17.55.26.83.43 1.38.56.02.84.03 1.39.02-.45.34-.68.5-1.13.82.17.55.26.82.43 1.37-.45-.34-.68-.52-1.13-.88-.45.31-.67.46-1.12.75.17-.53.26-.79.43-1.32-.45-.37-.68-.56-1.13-.95.56.07.84.1 1.39.14.19-.53.27-.8.44-1.33m-2.72-3.1c.17-.51.26-.77.43-1.29.17.57.26.85.43 1.41.56.07.84.1 1.39.14-.45.3-.68.45-1.13.73.17.56.26.84.43 1.4-.45-.38-.67-.57-1.13-.97-.45.27-.68.4-1.13.65.17-.51.26-.76.43-1.28-.45-.41-.67-.62-1.12-1.06.57.12.84.18 1.4.27m-2.7 2.21c.17.59.26.88.43 1.47.56.15.84.21 1.39.32-.45.25-.68.36-1.13.58.17.59.26.88.43 1.46-.45-.44-.68-.66-1.13-1.13-.45.21-.68.31-1.13.49.17-.48.26-.73.43-1.22-.45-.48-.68-.72-1.13-1.22.56.21.84.3 1.39.47.19-.48.27-.73.45-1.22m-2.73-3.75c.17-.47.26-.71.43-1.18.17.61.26.91.43 1.52.56.21.84.3 1.39.47-.45.2-.68.29-1.13.47.17.6.26.9.43 1.5-.45-.49-.68-.74-1.13-1.25-.45.16-.68.23-1.13.36.17-.46.26-.7.43-1.17-.45-.53-.68-.8-1.13-1.35.58.27.86.4 1.41.63m-.69 10.83c.17-.46.26-.7.43-1.17-.45-.53-.68-.8-1.13-1.36.56.27.84.4 1.39.63.17-.47.26-.71.43-1.18.17.61.26.91.43 1.52.56.21.84.3 1.39.47-.45.2-.68.29-1.13.47.17.6.26.9.43 1.5-.45-.49-.68-.74-1.13-1.25-.44.16-.66.24-1.11.37m4.55 6.47c-.45-.44-.68-.67-1.13-1.13-.45.21-.68.31-1.13.49.17-.48.26-.73.43-1.22-.45-.48-.68-.72-1.13-1.22.56.21.84.3 1.39.47.17-.49.26-.74.43-1.23.17.59.26.88.43 1.47.56.15.84.21 1.39.32-.45.25-.68.37-1.13.59.18.59.28.88.45 1.46m.87-4.75c.17-.51.26-.77.43-1.28-.45-.41-.67-.62-1.12-1.06.56.12.84.18 1.39.27.17-.51.26-.77.43-1.29.17.57.26.85.43 1.41.56.07.84.1 1.39.14-.45.3-.68.45-1.13.73.17.56.26.84.43 1.4-.45-.38-.67-.58-1.13-.98-.44.28-.66.41-1.12.66m4.55 5.39c-.45-.34-.68-.52-1.13-.88-.45.31-.67.46-1.12.75.17-.53.26-.79.43-1.32-.45-.37-.68-.56-1.13-.96.56.07.84.1 1.39.14.17-.53.26-.8.43-1.33.17.55.26.83.43 1.38.56.02.84.03 1.39.02-.45.34-.68.51-1.13.83.19.55.27.83.44 1.37m.88-4.94c.17-.54.26-.82.43-1.37-.45-.32-.68-.49-1.13-.83.56 0 .84 0 1.39-.02.17-.55.26-.82.43-1.37.17.53.26.8.43 1.33.56-.04.84-.06 1.39-.11-.45.38-.68.57-1.13.94.17.53.26.8.43 1.32-.45-.3-.68-.45-1.13-.76-.43.35-.66.53-1.11.87m4.55 4.57c-.45-.27-.68-.41-1.12-.69-.45.39-.68.58-1.13.95.17-.56.26-.84.43-1.39-.45-.29-.68-.44-1.12-.75.56-.04.84-.06 1.39-.12.17-.56.26-.84.43-1.4.17.52.26.78.43 1.3.56-.07.84-.11 1.39-.2-.45.41-.68.61-1.13 1.01.17.51.26.77.43 1.29m.88-5.07c.17-.57.26-.86.43-1.43-.45-.26-.68-.39-1.13-.66.56-.08.84-.13 1.39-.23.17-.57.25-.86.43-1.44.17.51.26.76.43 1.27.56-.11.84-.17 1.39-.29l-1.13 1.08c.17.51.25.76.43 1.27-.45-.24-.68-.36-1.13-.61-.44.42-.66.63-1.11 1.04m4.55 3.99c-.45-.23-.68-.34-1.13-.57-.45.44-.68.66-1.13 1.09.17-.58.26-.87.43-1.45-.45-.24-.68-.36-1.13-.61.56-.11.84-.17 1.39-.29.17-.58.26-.87.43-1.45.17.5.26.75.43 1.25.56-.13.84-.2 1.39-.34-.45.45-.68.67-1.13 1.12.19.5.28.75.45 1.25m3.13-5.76l-1.13-.53c-.45.46-.68.69-1.13 1.14.17-.59.26-.88.43-1.47-.45-.22-.67-.33-1.13-.55.56-.14.84-.21 1.39-.36.17-.59.26-.88.43-1.47.17.5.26.74.43 1.24.56-.15.84-.23 1.39-.39-.45.46-.68.69-1.13 1.15.19.49.28.74.45 1.24M29.2 11.9c.17.49.26.74.43 1.24l-1.13-.53c-.45.46-.68.69-1.13 1.14.17-.59.26-.88.43-1.47-.45-.22-.67-.33-1.13-.55.56-.14.84-.21 1.39-.36.17-.59.26-.88.43-1.47.17.5.26.74.43 1.24.56-.15.84-.23 1.39-.39-.43.46-.66.69-1.11 1.15" fill="#003149"/></svg>