<svg version="1.1" id="Layer_1" xmlns="http://www.w3.org/2000/svg" x="0" y="0" viewBox="0 0 360 360" xml:space="preserve"><style>.st0{fill:#b88e6b}.st1{fill:#fff}</style><path class="st0" d="M303.8 303.14c0-2.24 1.76-4.1 3.99-4.1s4.06 1.77 4.06 4.05-1.8 4.1-4.06 4.1c-2.18.01-3.99-1.85-3.99-4.05zm7.64 0c0-2.03-1.59-3.68-3.61-3.68-2.02 0-3.61 1.65-3.61 3.68 0 1.97 1.6 3.63 3.57 3.63 2.01.01 3.65-1.58 3.65-3.63zm-4.2 1.93h.75v.16h-2.47v-.16h.76v-4.06h-.76v-.16h2.54c.83 0 1.82.07 1.82.99 0 .75-.91 1-1.61 1.07v.02c1.18.15 1.45.7 1.45 1.77 0 .23.02.49.75.37v.15c-.21.06-.42.09-.64.09-.77 0-1.17-.34-1.17-1.02 0-1.06-.18-1.34-1.41-1.34v2.12zm0-2.3c.88-.02 1.59.1 1.59-.88 0-1.07-.6-.88-1.59-.89v1.77zm-232.1 20.55l-9.17-19.97v15.86c0 1.46.16 2.37.47 2.73.43.49 1.11.73 2.05.73h.84v.65h-8.26v-.65h.84c1 0 1.72-.3 2.14-.91.26-.37.38-1.23.38-2.56v-15.5c0-1.05-.12-1.81-.35-2.28-.16-.34-.46-.62-.9-.85-.44-.23-1.14-.34-2.11-.34v-.65h6.72l8.61 18.57 8.47-18.57h6.72v.65h-.82c-1.01 0-1.73.3-2.15.91-.26.37-.38 1.22-.38 2.56v15.51c0 1.46.16 2.37.49 2.73.43.49 1.11.73 2.05.73h.82v.65H81.51v-.65h.84c1.01 0 1.73-.3 2.14-.91.26-.37.38-1.23.38-2.56v-15.86l-9.15 19.97h-.58zm53.14-7.94h-9.19l-1.61 3.75c-.4.92-.6 1.61-.6 2.06 0 .36.17.68.52.95.34.27 1.09.45 2.23.53v.65h-7.47v-.65c.99-.17 1.63-.4 1.93-.68.59-.56 1.25-1.7 1.98-3.41l8.35-19.53h.61l8.26 19.74c.66 1.59 1.27 2.62 1.81 3.09.54.47 1.3.74 2.27.8v.65H128v-.65c.95-.05 1.58-.2 1.92-.47.33-.27.5-.6.5-.98 0-.51-.23-1.32-.7-2.43l-1.44-3.42zm-.49-1.3l-4.03-9.59-4.13 9.59h8.16zm53.73 9.24h-6.34l-8.03-11.1c-.59.02-1.08.04-1.45.04-.15 0-.31 0-.49-.01-.17-.01-.36-.01-.54-.03v6.9c0 1.49.16 2.42.49 2.78.44.51 1.11.77 2 .77h.93v.65h-10.17v-.65h.89c1 0 1.72-.33 2.15-.98.24-.36.37-1.22.37-2.57v-15.33c0-1.49-.16-2.42-.49-2.78-.45-.51-1.13-.77-2.03-.77h-.89v-.65h8.65c2.52 0 4.38.18 5.57.55 1.2.37 2.21 1.04 3.04 2.03.83.99 1.25 2.16 1.25 3.53 0 1.46-.48 2.72-1.43 3.8-.95 1.07-2.42 1.83-4.42 2.28l4.9 6.81c1.12 1.56 2.08 2.6 2.89 3.12s1.85.84 3.15.98v.63zm-16.85-12.2c.22 0 .41 0 .58.01.16.01.3.01.4.01 2.26 0 3.97-.49 5.12-1.47s1.72-2.23 1.72-3.75c0-1.48-.46-2.69-1.39-3.61-.93-.93-2.16-1.39-3.68-1.39-.68 0-1.59.11-2.75.33v9.87zm47.14 11.56v.65h-10.17v-.65h.84c.98 0 1.69-.29 2.14-.86.28-.37.42-1.27.42-2.7v-15.33c0-1.2-.08-2-.23-2.38-.12-.29-.36-.54-.72-.75-.51-.28-1.05-.42-1.61-.42h-.84v-.65h10.17v.65h-.86c-.97 0-1.67.29-2.12.86-.29.37-.44 1.27-.44 2.7v15.33c0 1.2.08 1.99.23 2.38.12.29.36.54.73.75.5.28 1.03.42 1.59.42h.87zm19.93-23.09h6.44l14.51 17.8V303.7c0-1.46-.16-2.37-.49-2.73-.43-.49-1.11-.73-2.05-.73h-.82v-.65h8.26v.65h-.84c-1 0-1.72.3-2.14.91-.26.37-.38 1.22-.38 2.56v20h-.63l-15.65-19.11v14.61c0 1.46.16 2.37.47 2.73.44.49 1.13.73 2.05.73h.84v.65h-8.26v-.65h.82c1.02 0 1.73-.3 2.15-.91.26-.37.38-1.23.38-2.56v-16.51c-.69-.8-1.21-1.34-1.57-1.59-.36-.26-.88-.5-1.57-.72-.34-.1-.85-.16-1.54-.16v-.63zm53.39 1.3v9.38h5.22c1.35 0 2.26-.2 2.71-.61.61-.54.95-1.48 1.02-2.84h.65v8.26h-.65c-.16-1.16-.33-1.9-.49-2.22-.21-.41-.55-.73-1.03-.96-.48-.23-1.21-.35-2.2-.35h-5.22v7.82c0 1.05.05 1.69.14 1.92.09.23.26.41.49.54.23.13.68.2 1.33.2h4.03c1.34 0 2.32-.09 2.92-.28.61-.19 1.19-.55 1.75-1.1.72-.72 1.46-1.81 2.22-3.27h.7l-2.05 5.95h-18.29v-.65h.84c.56 0 1.09-.13 1.59-.4.37-.19.63-.47.76-.84s.2-1.14.2-2.29v-15.42c0-1.51-.15-2.43-.45-2.78-.42-.47-1.12-.7-2.1-.7h-.84v-.65h18.29l.26 5.2h-.68c-.24-1.25-.52-2.11-.81-2.57-.3-.47-.74-.82-1.32-1.07-.47-.18-1.29-.26-2.47-.26h-6.52z"/><path class="st1" d="M123.63 70.85c-2.21 0-4 1.79-4 4s1.79 4 4 4h11.08c15.82 0 28.69-12.87 28.69-28.69 0-2.21-1.79-4-4-4s-4 1.79-4 4c0 11.41-9.28 20.69-20.69 20.69h-11.08z"/><path class="st1" d="M111.65 104.05h23.06c29.72 0 53.89-24.18 53.89-53.89 0-.24-.02-10.34-.06-10.56a3.997 3.997 0 00-3.94-3.3c-2.02 0-3.7 1.5-3.96 3.45-.02.18-.04 10.23-.04 10.41 0 25.3-20.59 45.89-45.89 45.89h-23.06c-.19 0-5.54.01-5.73.04a4 4 0 00-.25 7.88c.27.05 5.7.08 5.98.08zm0 42.39h23.06c29.72 0 53.89 24.18 53.89 53.89 0 .24-.02 10.34-.06 10.56a3.997 3.997 0 01-3.94 3.3c-2.02 0-3.7-1.5-3.96-3.45-.02-.18-.04-10.23-.04-10.41 0-25.3-20.59-45.89-45.89-45.89h-23.06c-.19 0-5.54-.01-5.73-.04a4 4 0 01-.25-7.88c.27-.05 5.7-.08 5.98-.08z"/><path class="st1" d="M190.64 144.41a78.932 78.932 0 00-25.14-16.95c-1.94-.82-3.9-1.56-5.88-2.22 1.98-.66 3.95-1.4 5.88-2.22 9.42-3.98 17.88-9.69 25.14-16.95a78.932 78.932 0 0016.95-25.14c4.13-9.75 6.22-20.11 6.22-30.79 0-2.21-1.79-4-4-4s-4 1.79-4 4c0 39.2-31.89 71.09-71.09 71.09H92.83c-2.21 0-4 1.79-4 4s1.79 4 4 4h41.89c39.2 0 71.09 31.89 71.09 71.09 0 2.21 1.79 4 4 4s4-1.79 4-4c0-10.68-2.09-21.03-6.22-30.79a79.068 79.068 0 00-16.95-25.12zm-55.93 27.23h-11.08c-2.21 0-4 1.79-4 4s1.79 4 4 4h11.08c11.41 0 20.69 9.28 20.69 20.69 0 2.21 1.79 4 4 4s4-1.79 4-4c.01-15.82-12.86-28.69-28.69-28.69z"/><path class="st0" d="M234.27 124.78c-5.83-.97-10.98-5.82-12.82-11.43-.77-2.61-1.09-10.16-1.09-10.16s-.29 7.51-1.09 10.16c-1.84 5.62-6.99 10.46-12.82 11.43-.83.16-8.29.46-8.29.46s7.46.31 8.29.46c5.83.97 10.98 5.82 12.82 11.43.83 2.86 1.09 10.16 1.09 10.16s.24-7.22 1.09-10.16c1.84-5.62 6.99-10.46 12.82-11.43.83-.16 8.29-.46 8.29-.46s-7.46-.3-8.29-.46z"/><path class="st1" d="M32.7 287.55l-8.15-26.59v26.59h-6.03v-57.16c0-1.87 1.27-2.21 1.95-2.29h4.08v21.66l7.48-21.49h6.37l-9.6 26.76 10.28 32.53H32.7zm47.83 0v-21.74c0-2.89-1.53-3.82-3.14-3.82h-3.23v25.57h-6.12V228.1h11.13c4.08 0 7.47 3.31 7.47 7.47v18.35s.25 4.67-2.21 5.27c2.38 1.19 2.21 5.61 2.21 5.61v22.76h-6.11zm-3.15-31.34c1.61 0 3.14-.68 3.14-3.4v-15.97c0-2.21-1.53-3.06-3.14-3.06h-3.23v22.42h3.23zm53.52-28.71c4.08.17 7.39 3.48 7.39 7.56v45.61c-.09 4.08-3.31 7.31-7.39 7.48h-4.67c-4.16 0-7.56-3.4-7.64-7.48v-45.61c0-4.16 3.4-7.56 7.64-7.56h4.67zm-2.04 55.29c1.78 0 3.23-1.44 3.23-3.31v-43.32c0-1.87-1.44-3.31-3.23-3.31h-.93c-1.78.09-3.23 1.53-3.23 3.31v43.32c0 1.78 1.44 3.23 3.23 3.31h.93zm62.52-1.27c-.68 1.53-1.7 3.91-1.95 4.42-.42.76-1.36 1.61-3.31 1.61h-13.59v-57.76c.09-.93.85-1.7 1.87-1.7h15.88l-2.04 4.42c-.34.76-1.27 1.7-3.23 1.7h-4.93c-.85 0-1.44.59-1.44 1.44v17.67h9.17c-.68 1.53-1.7 3.99-1.95 4.5-.42.76-1.27 1.61-3.23 1.61h-2.55c-.76 0-1.44.68-1.44 1.44v20.64h12.74zm48.33-37.2c0 2.04-.85 2.89-1.7 3.31-.42.26-2.8 1.36-4.42 2.04v-13.59c0-1.78-1.44-3.23-3.23-3.23-1.78 0-3.23 1.44-3.23 3.23v43.49c0 1.78 1.44 3.23 3.23 3.23 1.78 0 3.23-1.44 3.23-3.23v-17.75h-.25c-1.36 0-2.21-1.95-2.21-1.95l-2.04-4.25h7.64c1.87 0 2.97 1.02 2.97 3.31v21.66c0 4.08-3.31 7.39-7.39 7.56h-3.74c-4.16 0-7.56-3.4-7.56-7.56v-45.53c0-4.16 3.4-7.56 7.56-7.56h3.74c4.08.17 7.39 3.48 7.39 7.56v9.26zm53.6 37.2c-.68 1.53-1.7 3.91-1.95 4.42-.42.76-1.36 1.61-3.31 1.61h-13.59v-57.76c.09-.93.85-1.7 1.87-1.7h15.88l-2.04 4.42c-.34.76-1.27 1.7-3.23 1.7h-4.93c-.85 0-1.44.59-1.44 1.44v17.67h9.17c-.68 1.53-1.7 3.99-1.95 4.5-.42.76-1.27 1.61-3.23 1.61h-2.55c-.76 0-1.44.68-1.44 1.44v20.64h12.74zm42.05 6.03v-21.74c0-2.89-1.53-3.82-3.14-3.82h-3.23v25.57h-6.12V228.1H334c4.08 0 7.47 3.31 7.47 7.47v18.35s.25 4.67-2.21 5.27c2.38 1.19 2.21 5.61 2.21 5.61v22.76h-6.11zm-3.14-31.34c1.61 0 3.14-.68 3.14-3.4v-15.97c0-2.21-1.53-3.06-3.14-3.06h-3.23v22.42h3.23z"/></svg>