<svg version="1.1" id="Layer_1" xmlns="http://www.w3.org/2000/svg" xmlns:xlink="http://www.w3.org/1999/xlink" x="0" y="0" viewBox="0 0 44.4 44.11" xml:space="preserve"><defs><path id="SVGID_1_" d="M0 0h44.4v44.11H0z"/></defs><clipPath id="SVGID_2_"><use xlink:href="#SVGID_1_" overflow="visible"/></clipPath><path d="M36.11 21.59c-5.83-.97-10.98-5.82-12.82-11.43C22.51 7.55 22.2 0 22.2 0s-.29 7.51-1.09 10.16c-1.84 5.62-6.99 10.46-12.82 11.43-.83.16-8.29.47-8.29.47s7.45.31 8.29.46c5.83.97 10.98 5.82 12.82 11.43.83 2.86 1.09 10.16 1.09 10.16s.24-7.22 1.09-10.16c1.84-5.61 6.99-10.46 12.82-11.43.83-.16 8.29-.46 8.29-.46s-7.46-.31-8.29-.47" clip-path="url(#SVGID_2_)" fill="#b88e6b"/></svg>