<svg width="32" height="32" version="1.1" id="Layer_1" xmlns="http://www.w3.org/2000/svg" x="0" y="0" viewBox="0 0 110 110" xml:space="preserve"><path d="M87.68 54.15c-13.76-2.28-25.9-13.72-30.24-26.96-1.83-6.15-2.57-23.96-2.57-23.96s-.69 17.72-2.57 23.96c-4.34 13.24-16.49 24.68-30.24 26.96-1.96.37-19.55 1.09-19.55 1.09s17.58.72 19.55 1.09c13.76 2.28 25.9 13.72 30.24 26.96 1.97 6.74 2.57 23.96 2.57 23.96s.56-17.04 2.57-23.96c4.34-13.24 16.49-24.68 30.24-26.96 1.96-.37 19.55-1.09 19.55-1.09s-17.59-.72-19.55-1.09z" fill="#b88e6b"/></svg>