<svg viewBox="0 0 32 32" xmlns="http://www.w3.org/2000/svg" fill-rule="evenodd" clip-rule="evenodd" stroke-linejoin="round" stroke-miterlimit="2"><path d="M25.507 15.753c-4.003-.664-7.535-3.992-8.797-7.843-.533-1.789-.748-6.97-.748-6.97s-.201 5.155-.747 6.97c-1.263 3.851-4.798 7.179-8.798 7.843-.57.107-5.687.317-5.687.317s5.114.209 5.687.317c4.003.663 7.535 3.991 8.798 7.843.573 1.961.747 6.97.747 6.97s.163-4.957.748-6.97c1.262-3.852 4.797-7.18 8.797-7.843.57-.108 5.687-.317 5.687-.317s-5.117-.21-5.687-.317z" fill="#fff" fill-rule="nonzero" stroke="#b78d6b"/></svg>