<?xml version="1.0" encoding="utf-8"?>
<!-- Generator: Adobe Illustrator 23.1.1, SVG Export Plug-In . SVG Version: 6.00 Build 0)  -->
<svg version="1.1" id="Layer_1" xmlns="http://www.w3.org/2000/svg" xmlns:xlink="http://www.w3.org/1999/xlink" x="0px" y="0px"
	 viewBox="0 0 65 65" style="enable-background:new 0 0 65 65;" xml:space="preserve">
<style type="text/css">
	.st0{fill:#003149;}
	.st1{fill:#B9906C;}
	.st2{font-family:'Montserrat-Regular';}
	.st3{font-size:18.2378px;}
</style>
<g>
	<path class="st0" d="M6.52,41.09c-1.82-2.29-4.93-2.88-4.93-2.88s-0.16,3.15,1.66,5.46c1.82,2.31,4.94,2.9,4.94,2.9
		c0.04-0.04,2.26-2.24,2.48-5.14C10.89,38.5,9,35.95,9,35.95S6.74,38.16,6.52,41.09"/>
	<path class="st0" d="M6.36,49.76c0,0,1.05,2.98,3.62,4.41c2.57,1.44,5.67,0.8,5.67,0.8c0.02-0.06,1.23-2.93,0.33-5.7
		c-0.91-2.8-3.63-4.43-3.63-4.43s-1.24,2.9-0.33,5.7C9.46,49.12,6.36,49.76,6.36,49.76"/>
	<path class="st0" d="M15.37,58.77c0,0,2.4,2.37,5.54,2.56c3.14,0.19,5.83-1.88,5.83-1.88c-0.01-0.07-0.18-3.39-2.34-5.64
		c-2.18-2.26-5.56-2.56-5.56-2.56s0.16,3.37,2.34,5.63C18.05,56.71,15.37,58.77,15.37,58.77"/>
	<path class="st0" d="M4.98,35.58c0.05-0.03,2.65-1.44,3.63-4.03c0.99-2.61-0.06-5.44-0.06-5.44s-2.64,1.41-3.63,4.02
		c-1.05-2.57-3.73-3.93-3.73-3.93s-0.99,2.83,0.06,5.42C2.29,34.21,4.98,35.58,4.98,35.58"/>
	<path class="st0" d="M10.14,21.95c1.79-1.96,1.85-4.83,1.85-4.83s-2.83,0.32-4.62,2.28c-0.03-2.64-1.92-4.78-1.92-4.78
		s-1.86,2.15-1.84,4.81c0.02,2.66,1.91,4.8,1.91,4.8C5.57,24.23,8.37,23.89,10.14,21.95"/>
	<path class="st0" d="M14.55,14.45c2-0.98,2.93-3.19,2.93-3.19s-2.3-0.63-4.3,0.35c0.79-2.06-0.02-4.32-0.02-4.32
		s-2.12,1.1-2.92,3.18c-0.81,2.07,0,4.33,0,4.33C10.29,14.81,12.57,15.42,14.55,14.45"/>
	<path class="st0" d="M22.15,8.23c2.35-1.06,3.37-3.89,3.37-3.89s-2.8-1.12-5.15-0.07C18.02,5.33,17,8.16,17,8.16
		S19.8,9.29,22.15,8.23"/>
	<path class="st0" d="M58.63,41.09c-0.22-2.93-2.48-5.14-2.48-5.14s-1.89,2.55-1.67,5.48c0.22,2.9,2.44,5.1,2.48,5.14
		c0,0,3.12-0.59,4.94-2.9c1.82-2.3,1.66-5.46,1.66-5.46S60.45,38.8,58.63,41.09"/>
	<path class="st0" d="M52.8,44.84c0,0-2.72,1.63-3.63,4.43c-0.9,2.77,0.31,5.65,0.33,5.7c0,0,3.1,0.64,5.67-0.8
		c2.57-1.43,3.62-4.41,3.62-4.41s-3.1-0.64-5.66,0.78C54.04,47.74,52.8,44.84,52.8,44.84"/>
	<path class="st0" d="M40.75,53.81c-2.16,2.25-2.34,5.58-2.35,5.64c0,0,2.69,2.07,5.83,1.88c3.14-0.19,5.54-2.56,5.54-2.56
		s-2.68-2.06-5.81-1.89c2.18-2.26,2.34-5.63,2.34-5.63S42.93,51.54,40.75,53.81"/>
	<path class="st0" d="M56.6,26.12c0,0-1.05,2.82-0.06,5.44c0.98,2.59,3.58,4,3.63,4.03c0,0,2.68-1.37,3.73-3.95
		c1.05-2.59,0.06-5.42,0.06-5.42s-2.68,1.36-3.73,3.93C59.25,27.53,56.6,26.12,56.6,26.12"/>
	<path class="st0" d="M55.01,21.95c1.77,1.95,4.57,2.28,4.62,2.29c0,0,1.89-2.15,1.91-4.8c0.02-2.66-1.85-4.81-1.85-4.81
		s-1.89,2.14-1.92,4.78c-1.78-1.96-4.62-2.28-4.62-2.28S53.22,19.98,55.01,21.95"/>
	<path class="st0" d="M47.66,11.26c0,0,0.94,2.21,2.93,3.19c1.98,0.97,4.26,0.37,4.3,0.36c0,0,0.81-2.26,0-4.33
		c-0.81-2.07-2.92-3.18-2.92-3.18s-0.81,2.25-0.02,4.32C49.96,10.64,47.66,11.26,47.66,11.26"/>
	<path class="st0" d="M43,8.23c2.35,1.06,5.15-0.07,5.15-0.07s-1.02-2.83-3.37-3.89c-2.35-1.06-5.15,0.07-5.15,0.07
		S40.65,7.17,43,8.23"/>
	<path class="st0" d="M35.84,58.82c0-1.81-1.46-3.27-3.27-3.27c-1.8,0-3.27,1.46-3.27,3.27c0,1.8,1.46,3.27,3.27,3.27
		C34.38,62.08,35.84,60.62,35.84,58.82"/>
	<path class="st0" d="M16.12,31.61c0.01,7.61,3.18,12.52,6.78,15.8c3.6,3.26,8.06,4.9,9.64,5.39c2.88-0.95,6.01-2.76,8.12-4.41
		c4.22-3.31,8.35-8.53,8.36-16.78l0.01-13.28c-5.35-1.64-10.91-2.47-16.47-2.47c-5.56,0-11.12,0.82-16.47,2.47L16.12,31.61z"/>
</g>
<text transform="matrix(1 0 0 1 22.4712 38.4531)" class="st1 st2 st3">35</text>
</svg>
