<?xml version="1.0" encoding="utf-8"?>
<!-- Generator: Adobe Illustrator 23.1.1, SVG Export Plug-In . SVG Version: 6.00 Build 0)  -->
<svg version="1.1" id="Layer_1" xmlns="http://www.w3.org/2000/svg" xmlns:xlink="http://www.w3.org/1999/xlink" x="0px" y="0px"
	 viewBox="0 0 65 65" style="enable-background:new 0 0 65 65;" xml:space="preserve">
<style type="text/css">
	.st0{fill:#003149;}
</style>
<path class="st0" d="M58.13,18.31c0-0.79-0.5-1.49-1.24-1.74L9.32,0.1C8.76-0.09,8.13-0.01,7.65,0.34C7.16,0.69,6.87,1.25,6.87,1.85
	v52.14l-3.1,1.94V65h57.47v-9.08l-3.1-1.94V18.31z M54.44,53.52H10.57V4.44l43.87,15.19V53.52z"/>
<polygon class="st0" points="25.46,43.02 32.5,39.31 39.55,43.02 38.2,35.17 43.9,29.62 36.02,28.47 32.5,21.33 28.98,28.47 
	21.1,29.62 26.8,35.17 "/>
</svg>
