<?xml version="1.0" encoding="utf-8"?>
<!-- Generator: Adobe Illustrator 23.1.1, SVG Export Plug-In . SVG Version: 6.00 Build 0)  -->
<svg version="1.1" id="Layer_1" xmlns="http://www.w3.org/2000/svg" xmlns:xlink="http://www.w3.org/1999/xlink" x="0px" y="0px"
	 viewBox="0 0 56.48 56.48" style="enable-background:new 0 0 56.48 56.48;" xml:space="preserve">
<style type="text/css">
	.st0{fill:#003149;}
	.st1{fill-rule:evenodd;clip-rule:evenodd;fill:#B78D6B;}
</style>
<g>
	<path class="st0" d="M28.24,56.48c15.6,0,28.24-12.64,28.24-28.24C56.47,12.64,43.83,0,28.24,0C12.64,0,0,12.64,0,28.24
		C0,43.83,12.64,56.47,28.24,56.48 M28.24,2.98C42.19,3,53.47,14.29,53.5,28.24C53.47,42.19,42.19,53.47,28.24,53.5
		C14.29,53.47,3,42.19,2.98,28.24C3,14.29,14.29,3,28.24,2.98"/>
	<path class="st0" d="M9.57,34.25c-0.61-1.89-0.94-3.9-0.94-6c0.02-10.83,8.78-19.58,19.6-19.6c10.82,0.02,19.58,8.78,19.6,19.6
		c0,2.03-0.31,3.99-0.88,5.83l2.29,0.71c0.64-2.07,0.99-4.27,0.99-6.54c0-12.15-9.85-22-22-22s-22,9.85-22,22
		c0,2.35,0.37,4.61,1.05,6.73L9.57,34.25L9.57,34.25z"/>
	<path class="st0" d="M28.24,49.84c8.9,0,16.57-5.27,20.08-12.85l-4.34,0.83l-1.99-3.05c-2.56,4.99-7.74,8.41-13.74,8.42
		c-6.02-0.01-11.22-3.46-13.77-8.48l-2.4,2.8l-3.94-0.58C11.63,44.55,19.31,49.84,28.24,49.84"/>
</g>
<path class="st1" d="M22.56,25.57l3.26,7.07c0,0,5.4-14.21,13.86-18.65c-0.21,3.17-1,4.62-0.2,8.27
	c-3.71,0.85-10.86,12.7-13.34,17.35c-3.51-4.44-6.41-9.43-9.3-10.49L22.56,25.57z"/>
</svg>
