<?xml version="1.0" encoding="utf-8"?>
<!-- Generator: Adobe Illustrator 23.1.1, SVG Export Plug-In . SVG Version: 6.00 Build 0)  -->
<svg version="1.1" id="Layer_1" xmlns="http://www.w3.org/2000/svg" xmlns:xlink="http://www.w3.org/1999/xlink" x="0px" y="0px"
	 viewBox="0 0 65 65" style="enable-background:new 0 0 65 65;" xml:space="preserve">
<style type="text/css">
	.st0{fill:#003149;}
</style>
<g>
	<path class="st0" d="M56.11,3.97c-3.26-0.59-4.89-0.57-8.14-0.23c-3.26,0.33-4.88,0.71-8.14,1.55c-3.26,0.84-4.88,1.38-8.14,2.32
		c-5.7,1.66-8.55,2.59-14.25,2.83c-5.21,0.23-8.06-0.05-12.86-2.66v-1.9C5.41,5.41,5.97,4.53,5.97,3.5c0-1.53-1.24-2.78-2.78-2.78
		c-1.53,0-2.78,1.24-2.78,2.78c0,1.03,0.56,1.91,1.39,2.39v57.28h2.78V45.27c2.2,1.18,3.69,1.65,6.25,2.17
		c3.05,0.62,4.58,0.65,7.63,0.42c3.05-0.23,4.58-0.53,7.63-1.26s4.58-1.21,7.63-2.11c3.05-0.9,4.58-1.38,7.63-2.11
		c3.05-0.73,4.58-1.04,7.63-1.26c3.05-0.23,4.58-0.2,7.63,0.42c3.05,0.62,4.58,1.15,7.63,2.95v-4.16c-3.05-1.8-4.58-2.33-7.63-2.95
		c-3.05-0.62-4.58-0.65-7.63-0.42c-3.05,0.23-4.58,0.53-7.63,1.26c-3.05,0.73-4.58,1.21-7.63,2.11c-3.05,0.9-4.58,1.38-7.63,2.11
		s-4.58,1.04-7.63,1.26c-3.05,0.23-4.58,0.2-7.63-0.42c-2.55-0.52-4.05-0.98-6.25-2.17v-4.16c2.2,1.18,3.69,1.65,6.25,2.17
		c3.05,0.62,4.58,0.65,7.63,0.42c3.05-0.22,4.58-0.53,7.63-1.26c3.05-0.73,4.58-1.21,7.63-2.11c3.05-0.9,4.58-1.38,7.63-2.11
		c3.05-0.73,4.58-1.04,7.63-1.26c3.05-0.23,4.58-0.2,7.63,0.42c3.05,0.62,4.58,1.15,7.63,2.95V32c-3.05-1.8-4.58-2.33-7.63-2.95
		c-3.05-0.62-4.58-0.65-7.63-0.42c-3.05,0.23-4.58,0.53-7.63,1.26c-3.05,0.73-4.58,1.21-7.63,2.11c-3.05,0.9-4.58,1.38-7.63,2.11
		c-3.05,0.73-4.58,1.04-7.63,1.26c-3.05,0.23-4.58,0.2-7.63-0.42c-2.55-0.52-4.05-0.98-6.25-2.17v-4.17
		c4.8,2.61,7.65,2.89,12.86,2.66c5.7-0.25,8.55-1.18,14.25-2.84c3.26-0.95,4.88-1.48,8.14-2.32c3.26-0.84,4.88-1.22,8.14-1.55
		c3.26-0.33,4.88-0.35,8.14,0.23c3.26,0.59,4.88,1.13,8.14,3.05v-4.16c-3.26-1.92-4.88-2.46-8.14-3.05
		c-3.26-0.59-4.89-0.57-8.14-0.23c-3.26,0.33-4.88,0.71-8.14,1.56c-3.26,0.84-4.88,1.38-8.14,2.32V20.1
		c3.26-0.95,4.88-1.48,8.14-2.32c3.26-0.84,4.88-1.22,8.14-1.55c3.26-0.33,4.88-0.36,8.14,0.23c3.26,0.59,4.88,1.13,8.14,3.05v-4.16
		c-3.26-1.92-4.88-2.46-8.14-3.05c-3.26-0.59-4.89-0.57-8.14-0.23c-3.26,0.33-4.88,0.71-8.14,1.55c-3.26,0.84-4.88,1.38-8.14,2.32
		v-4.16c3.26-0.95,4.88-1.48,8.14-2.32c3.26-0.84,4.88-1.22,8.14-1.55c3.26-0.33,4.88-0.36,8.14,0.23c3.26,0.59,4.88,1.13,8.14,3.05
		V7.02C61,5.1,59.37,4.56,56.11,3.97 M25.37,14.84c0.17,0.5,0.26,0.75,0.43,1.25c0.56-0.13,0.84-0.2,1.39-0.34
		c-0.45,0.45-0.68,0.67-1.13,1.12c0.17,0.5,0.26,0.75,0.43,1.25c-0.45-0.23-0.68-0.34-1.13-0.57c-0.45,0.44-0.68,0.66-1.13,1.08
		c0.17-0.58,0.26-0.87,0.43-1.45c-0.45-0.24-0.68-0.36-1.13-0.6c0.56-0.11,0.84-0.17,1.39-0.29C25.11,15.71,25.2,15.43,25.37,14.84
		 M22.65,12.59c0.17-0.57,0.25-0.86,0.43-1.43c0.17,0.51,0.26,0.76,0.43,1.27c0.56-0.11,0.84-0.17,1.39-0.29
		c-0.45,0.43-0.68,0.65-1.13,1.07c0.17,0.51,0.25,0.76,0.43,1.27c-0.45-0.24-0.68-0.36-1.13-0.61c-0.45,0.42-0.67,0.63-1.13,1.04
		c0.17-0.57,0.26-0.86,0.43-1.43c-0.45-0.26-0.68-0.39-1.13-0.66C21.81,12.74,22.09,12.69,22.65,12.59 M19.95,15.8
		c0.17,0.52,0.26,0.79,0.43,1.31c0.56-0.07,0.84-0.11,1.39-0.2c-0.45,0.41-0.68,0.61-1.13,1c0.17,0.52,0.26,0.78,0.43,1.3
		c-0.45-0.27-0.68-0.41-1.12-0.69c-0.45,0.39-0.68,0.58-1.13,0.95c0.17-0.56,0.26-0.84,0.43-1.39c-0.45-0.29-0.68-0.44-1.12-0.75
		c0.56-0.04,0.84-0.06,1.39-0.12C19.68,16.64,19.77,16.36,19.95,15.8 M17.22,13.2c0.17-0.55,0.26-0.82,0.43-1.38
		c0.17,0.53,0.26,0.8,0.43,1.33c0.56-0.04,0.84-0.06,1.39-0.11c-0.45,0.38-0.68,0.57-1.13,0.94c0.17,0.53,0.26,0.8,0.43,1.33
		c-0.45-0.3-0.68-0.45-1.13-0.76c-0.45,0.36-0.68,0.53-1.13,0.87c0.17-0.54,0.26-0.82,0.43-1.37c-0.45-0.32-0.68-0.49-1.13-0.83
		C16.38,13.22,16.66,13.22,17.22,13.2 M14.51,15.99c0.17,0.55,0.26,0.83,0.43,1.38c0.56,0.02,0.84,0.03,1.39,0.02
		c-0.45,0.34-0.68,0.5-1.13,0.82c0.17,0.55,0.26,0.82,0.43,1.37c-0.45-0.34-0.68-0.52-1.13-0.88c-0.45,0.31-0.67,0.46-1.12,0.75
		c0.17-0.53,0.26-0.79,0.43-1.32c-0.45-0.37-0.68-0.56-1.13-0.95c0.56,0.07,0.84,0.1,1.39,0.14C14.26,16.79,14.34,16.52,14.51,15.99
		 M11.79,12.89c0.17-0.51,0.26-0.77,0.43-1.29c0.17,0.57,0.26,0.85,0.43,1.41c0.56,0.07,0.84,0.1,1.39,0.14
		c-0.45,0.3-0.68,0.45-1.13,0.73c0.17,0.56,0.26,0.84,0.43,1.4c-0.45-0.38-0.67-0.57-1.13-0.97c-0.45,0.27-0.68,0.4-1.13,0.65
		c0.17-0.51,0.26-0.76,0.43-1.28c-0.45-0.41-0.67-0.62-1.12-1.06C10.96,12.74,11.23,12.8,11.79,12.89 M9.09,15.1
		c0.17,0.59,0.26,0.88,0.43,1.47c0.56,0.15,0.84,0.21,1.39,0.32c-0.45,0.25-0.68,0.36-1.13,0.58c0.17,0.59,0.26,0.88,0.43,1.46
		c-0.45-0.44-0.68-0.66-1.13-1.13c-0.45,0.21-0.68,0.31-1.13,0.49c0.17-0.48,0.26-0.73,0.43-1.22c-0.45-0.48-0.68-0.72-1.13-1.22
		c0.56,0.21,0.84,0.3,1.39,0.47C8.83,15.84,8.91,15.59,9.09,15.1 M6.36,11.35c0.17-0.47,0.26-0.71,0.43-1.18
		c0.17,0.61,0.26,0.91,0.43,1.52c0.56,0.21,0.84,0.3,1.39,0.47c-0.45,0.2-0.68,0.29-1.13,0.47c0.17,0.6,0.26,0.9,0.43,1.5
		c-0.45-0.49-0.68-0.74-1.13-1.25c-0.45,0.16-0.68,0.23-1.13,0.36c0.17-0.46,0.26-0.7,0.43-1.17c-0.45-0.53-0.68-0.8-1.13-1.35
		C5.53,10.99,5.81,11.12,6.36,11.35 M5.67,22.18c0.17-0.46,0.26-0.7,0.43-1.17c-0.45-0.53-0.68-0.8-1.13-1.36
		c0.56,0.27,0.84,0.4,1.39,0.63c0.17-0.47,0.26-0.71,0.43-1.18c0.17,0.61,0.26,0.91,0.43,1.52c0.56,0.21,0.84,0.3,1.39,0.47
		c-0.45,0.2-0.68,0.29-1.13,0.47c0.17,0.6,0.26,0.9,0.43,1.5c-0.45-0.49-0.68-0.74-1.13-1.25C6.34,21.97,6.12,22.05,5.67,22.18
		 M10.22,28.65c-0.45-0.44-0.68-0.67-1.13-1.13c-0.45,0.21-0.68,0.31-1.13,0.49c0.17-0.48,0.26-0.73,0.43-1.22
		c-0.45-0.48-0.68-0.72-1.13-1.22c0.56,0.21,0.84,0.3,1.39,0.47c0.17-0.49,0.26-0.74,0.43-1.23c0.17,0.59,0.26,0.88,0.43,1.47
		c0.56,0.15,0.84,0.21,1.39,0.32c-0.45,0.25-0.68,0.37-1.13,0.59C9.95,27.78,10.05,28.07,10.22,28.65 M11.09,23.9
		c0.17-0.51,0.26-0.77,0.43-1.28c-0.45-0.41-0.67-0.62-1.12-1.06c0.56,0.12,0.84,0.18,1.39,0.27c0.17-0.51,0.26-0.77,0.43-1.29
		c0.17,0.57,0.26,0.85,0.43,1.41c0.56,0.07,0.84,0.1,1.39,0.14c-0.45,0.3-0.68,0.45-1.13,0.73c0.17,0.56,0.26,0.84,0.43,1.4
		c-0.45-0.38-0.67-0.58-1.13-0.98C11.77,23.52,11.55,23.65,11.09,23.9 M15.64,29.29c-0.45-0.34-0.68-0.52-1.13-0.88
		c-0.45,0.31-0.67,0.46-1.12,0.75c0.17-0.53,0.26-0.79,0.43-1.32c-0.45-0.37-0.68-0.56-1.13-0.96c0.56,0.07,0.84,0.1,1.39,0.14
		c0.17-0.53,0.26-0.8,0.43-1.33c0.17,0.55,0.26,0.83,0.43,1.38c0.56,0.02,0.84,0.03,1.39,0.02c-0.45,0.34-0.68,0.51-1.13,0.83
		C15.39,28.47,15.47,28.75,15.64,29.29 M16.52,24.35c0.17-0.54,0.26-0.82,0.43-1.37c-0.45-0.32-0.68-0.49-1.13-0.83
		c0.56,0,0.84,0,1.39-0.02c0.17-0.55,0.26-0.82,0.43-1.37c0.17,0.53,0.26,0.8,0.43,1.33c0.56-0.04,0.84-0.06,1.39-0.11
		c-0.45,0.38-0.68,0.57-1.13,0.94c0.17,0.53,0.26,0.8,0.43,1.32c-0.45-0.3-0.68-0.45-1.13-0.76C17.2,23.83,16.97,24.01,16.52,24.35
		 M21.07,28.92c-0.45-0.27-0.68-0.41-1.12-0.69c-0.45,0.39-0.68,0.58-1.13,0.95c0.17-0.56,0.26-0.84,0.43-1.39
		c-0.45-0.29-0.68-0.44-1.12-0.75c0.56-0.04,0.84-0.06,1.39-0.12c0.17-0.56,0.26-0.84,0.43-1.4c0.17,0.52,0.26,0.78,0.43,1.3
		c0.56-0.07,0.84-0.11,1.39-0.2c-0.45,0.41-0.68,0.61-1.13,1.01C20.81,28.14,20.9,28.4,21.07,28.92 M21.95,23.85
		c0.17-0.57,0.26-0.86,0.43-1.43c-0.45-0.26-0.68-0.39-1.13-0.66c0.56-0.08,0.84-0.13,1.39-0.23c0.17-0.57,0.25-0.86,0.43-1.44
		c0.17,0.51,0.26,0.76,0.43,1.27c0.56-0.11,0.84-0.17,1.39-0.29c-0.45,0.43-0.68,0.65-1.13,1.08c0.17,0.51,0.25,0.76,0.43,1.27
		c-0.45-0.24-0.68-0.36-1.13-0.61C22.62,23.23,22.4,23.44,21.95,23.85 M26.5,27.84c-0.45-0.23-0.68-0.34-1.13-0.57
		c-0.45,0.44-0.68,0.66-1.13,1.09c0.17-0.58,0.26-0.87,0.43-1.45c-0.45-0.24-0.68-0.36-1.13-0.61c0.56-0.11,0.84-0.17,1.39-0.29
		c0.17-0.58,0.26-0.87,0.43-1.45c0.17,0.5,0.26,0.75,0.43,1.25c0.56-0.13,0.84-0.2,1.39-0.34c-0.45,0.45-0.68,0.67-1.13,1.12
		C26.24,27.09,26.33,27.34,26.5,27.84 M29.63,22.08c-0.45-0.21-0.68-0.32-1.13-0.53c-0.45,0.46-0.68,0.69-1.13,1.14
		c0.17-0.59,0.26-0.88,0.43-1.47c-0.45-0.22-0.67-0.33-1.13-0.55c0.56-0.14,0.84-0.21,1.39-0.36c0.17-0.59,0.26-0.88,0.43-1.47
		c0.17,0.5,0.26,0.74,0.43,1.24c0.56-0.15,0.84-0.23,1.39-0.39c-0.45,0.46-0.68,0.69-1.13,1.15C29.37,21.33,29.46,21.58,29.63,22.08
		 M29.2,11.9c0.17,0.49,0.26,0.74,0.43,1.24c-0.45-0.21-0.68-0.32-1.13-0.53c-0.45,0.46-0.68,0.69-1.13,1.14
		c0.17-0.59,0.26-0.88,0.43-1.47c-0.45-0.22-0.67-0.33-1.13-0.55c0.56-0.14,0.84-0.21,1.39-0.36c0.17-0.59,0.26-0.88,0.43-1.47
		c0.17,0.5,0.26,0.74,0.43,1.24c0.56-0.15,0.84-0.23,1.39-0.39C29.88,11.21,29.65,11.44,29.2,11.9"/>
</g>
</svg>
