<?xml version="1.0" encoding="utf-8"?>
<!-- Generator: Adobe Illustrator 23.1.1, SVG Export Plug-In . SVG Version: 6.00 Build 0)  -->
<svg version="1.1" id="Layer_1" xmlns="http://www.w3.org/2000/svg" xmlns:xlink="http://www.w3.org/1999/xlink" x="0px" y="0px"
	 viewBox="0 0 360 360" style="enable-background:new 0 0 360 360;" xml:space="preserve">
<style type="text/css">
	.st0{fill:#B88E6B;}
	.st1{fill:#FFFFFF;}
</style>
<g>
	<g>
		<g>
			<path class="st0" d="M303.8,303.14c0-2.24,1.76-4.1,3.99-4.1s4.06,1.77,4.06,4.05c0,2.28-1.8,4.1-4.06,4.1
				C305.61,307.2,303.8,305.34,303.8,303.14z M311.44,303.14c0-2.03-1.59-3.68-3.61-3.68c-2.02,0-3.61,1.65-3.61,3.68
				c0,1.97,1.6,3.63,3.57,3.63C309.8,306.78,311.44,305.19,311.44,303.14z M307.24,305.07h0.75v0.16h-2.47v-0.16h0.76v-4.06h-0.76
				v-0.16h2.54c0.83,0,1.82,0.07,1.82,0.99c0,0.75-0.91,1-1.61,1.07v0.02c1.18,0.15,1.45,0.7,1.45,1.77c0,0.23,0.02,0.49,0.75,0.37
				v0.15c-0.21,0.06-0.42,0.09-0.64,0.09c-0.77,0-1.17-0.34-1.17-1.02c0-1.06-0.18-1.34-1.41-1.34V305.07z M307.24,302.77
				c0.88-0.02,1.59,0.1,1.59-0.88c0-1.07-0.6-0.88-1.59-0.89V302.77z"/>
		</g>
		<g>
			<path class="st0" d="M75.14,323.32l-9.17-19.97v15.86c0,1.46,0.16,2.37,0.47,2.73c0.43,0.49,1.11,0.73,2.05,0.73h0.84v0.65h-8.26
				v-0.65h0.84c1,0,1.72-0.3,2.14-0.91c0.26-0.37,0.38-1.23,0.38-2.56V303.7c0-1.05-0.12-1.81-0.35-2.28
				c-0.16-0.34-0.46-0.62-0.9-0.85c-0.44-0.23-1.14-0.34-2.11-0.34v-0.65h6.72l8.61,18.57l8.47-18.57h6.72v0.65h-0.82
				c-1.01,0-1.73,0.3-2.15,0.91c-0.26,0.37-0.38,1.22-0.38,2.56v15.51c0,1.46,0.16,2.37,0.49,2.73c0.43,0.49,1.11,0.73,2.05,0.73
				h0.82v0.65H81.51v-0.65h0.84c1.01,0,1.73-0.3,2.14-0.91c0.26-0.37,0.38-1.23,0.38-2.56v-15.86l-9.15,19.97H75.14z"/>
			<path class="st0" d="M128.28,315.38h-9.19l-1.61,3.75c-0.4,0.92-0.6,1.61-0.6,2.06c0,0.36,0.17,0.68,0.52,0.95
				c0.34,0.27,1.09,0.45,2.23,0.53v0.65h-7.47v-0.65c0.99-0.17,1.63-0.4,1.93-0.68c0.59-0.56,1.25-1.7,1.98-3.41l8.35-19.53h0.61
				l8.26,19.74c0.66,1.59,1.27,2.62,1.81,3.09c0.54,0.47,1.3,0.74,2.27,0.8v0.65H128v-0.65c0.95-0.05,1.58-0.2,1.92-0.47
				c0.33-0.27,0.5-0.6,0.5-0.98c0-0.51-0.23-1.32-0.7-2.43L128.28,315.38z M127.79,314.08l-4.03-9.59l-4.13,9.59H127.79z"/>
			<path class="st0" d="M181.52,323.32h-6.34l-8.03-11.1c-0.59,0.02-1.08,0.04-1.45,0.04c-0.15,0-0.31,0-0.49-0.01
				c-0.17-0.01-0.36-0.01-0.54-0.03v6.9c0,1.49,0.16,2.42,0.49,2.78c0.44,0.51,1.11,0.77,2,0.77h0.93v0.65h-10.17v-0.65h0.89
				c1,0,1.72-0.33,2.15-0.98c0.24-0.36,0.37-1.22,0.37-2.57v-15.33c0-1.49-0.16-2.42-0.49-2.78c-0.45-0.51-1.13-0.77-2.03-0.77
				h-0.89v-0.65h8.65c2.52,0,4.38,0.18,5.57,0.55c1.2,0.37,2.21,1.04,3.04,2.03c0.83,0.99,1.25,2.16,1.25,3.53
				c0,1.46-0.48,2.72-1.43,3.8c-0.95,1.07-2.42,1.83-4.42,2.28l4.9,6.81c1.12,1.56,2.08,2.6,2.89,3.12s1.85,0.84,3.15,0.98V323.32z
				 M164.67,311.12c0.22,0,0.41,0,0.58,0.01c0.16,0.01,0.3,0.01,0.4,0.01c2.26,0,3.97-0.49,5.12-1.47c1.15-0.98,1.72-2.23,1.72-3.75
				c0-1.48-0.46-2.69-1.39-3.61c-0.93-0.93-2.16-1.39-3.68-1.39c-0.68,0-1.59,0.11-2.75,0.33V311.12z"/>
			<path class="st0" d="M211.81,322.68v0.65h-10.17v-0.65h0.84c0.98,0,1.69-0.29,2.14-0.86c0.28-0.37,0.42-1.27,0.42-2.7v-15.33
				c0-1.2-0.08-2-0.23-2.38c-0.12-0.29-0.36-0.54-0.72-0.75c-0.51-0.28-1.05-0.42-1.61-0.42h-0.84v-0.65h10.17v0.65h-0.86
				c-0.97,0-1.67,0.29-2.12,0.86c-0.29,0.37-0.44,1.27-0.44,2.7v15.33c0,1.2,0.08,1.99,0.23,2.38c0.12,0.29,0.36,0.54,0.73,0.75
				c0.5,0.28,1.03,0.42,1.59,0.42H211.81z"/>
			<path class="st0" d="M231.74,299.59h6.44l14.51,17.8V303.7c0-1.46-0.16-2.37-0.49-2.73c-0.43-0.49-1.11-0.73-2.05-0.73h-0.82
				v-0.65h8.26v0.65h-0.84c-1,0-1.72,0.3-2.14,0.91c-0.26,0.37-0.38,1.22-0.38,2.56v20h-0.63l-15.65-19.11v14.61
				c0,1.46,0.16,2.37,0.47,2.73c0.44,0.49,1.13,0.73,2.05,0.73h0.84v0.65h-8.26v-0.65h0.82c1.02,0,1.73-0.3,2.15-0.91
				c0.26-0.37,0.38-1.23,0.38-2.56v-16.51c-0.69-0.8-1.21-1.34-1.57-1.59c-0.36-0.26-0.88-0.5-1.57-0.72
				c-0.34-0.1-0.85-0.16-1.54-0.16V299.59z"/>
			<path class="st0" d="M285.13,300.89v9.38h5.22c1.35,0,2.26-0.2,2.71-0.61c0.61-0.54,0.95-1.48,1.02-2.84h0.65v8.26h-0.65
				c-0.16-1.16-0.33-1.9-0.49-2.22c-0.21-0.41-0.55-0.73-1.03-0.96c-0.48-0.23-1.21-0.35-2.2-0.35h-5.22v7.82
				c0,1.05,0.05,1.69,0.14,1.92c0.09,0.23,0.26,0.41,0.49,0.54c0.23,0.13,0.68,0.2,1.33,0.2h4.03c1.34,0,2.32-0.09,2.92-0.28
				c0.61-0.19,1.19-0.55,1.75-1.1c0.72-0.72,1.46-1.81,2.22-3.27h0.7l-2.05,5.95h-18.29v-0.65h0.84c0.56,0,1.09-0.13,1.59-0.4
				c0.37-0.19,0.63-0.47,0.76-0.84c0.13-0.37,0.2-1.14,0.2-2.29v-15.42c0-1.51-0.15-2.43-0.45-2.78c-0.42-0.47-1.12-0.7-2.1-0.7
				h-0.84v-0.65h18.29l0.26,5.2h-0.68c-0.24-1.25-0.52-2.11-0.81-2.57c-0.3-0.47-0.74-0.82-1.32-1.07
				c-0.47-0.18-1.29-0.26-2.47-0.26H285.13z"/>
		</g>
	</g>
	<path class="st1" d="M123.63,70.85c-2.21,0-4,1.79-4,4c0,2.21,1.79,4,4,4h11.08c15.82,0,28.69-12.87,28.69-28.69c0-2.21-1.79-4-4-4
		c-2.21,0-4,1.79-4,4c0,11.41-9.28,20.69-20.69,20.69H123.63z"/>
	<path class="st1" d="M111.65,104.05h23.06c29.72,0,53.89-24.18,53.89-53.89c0-0.24-0.02-10.34-0.06-10.56
		c-0.33-1.88-1.97-3.3-3.94-3.3c-2.02,0-3.7,1.5-3.96,3.45c-0.02,0.18-0.04,10.23-0.04,10.41c0,25.3-20.59,45.89-45.89,45.89h-23.06
		c-0.19,0-5.54,0.01-5.73,0.04c-1.94,0.27-3.44,1.94-3.44,3.96c0,1.93,1.37,3.55,3.19,3.92
		C105.94,104.02,111.37,104.05,111.65,104.05z"/>
	<path class="st1" d="M111.65,146.44h23.06c29.72,0,53.89,24.18,53.89,53.89c0,0.24-0.02,10.34-0.06,10.56
		c-0.33,1.88-1.97,3.3-3.94,3.3c-2.02,0-3.7-1.5-3.96-3.45c-0.02-0.18-0.04-10.23-0.04-10.41c0-25.3-20.59-45.89-45.89-45.89h-23.06
		c-0.19,0-5.54-0.01-5.73-0.04c-1.94-0.27-3.44-1.94-3.44-3.96c0-1.93,1.37-3.55,3.19-3.92
		C105.94,146.47,111.37,146.44,111.65,146.44z"/>
	<path class="st1" d="M190.64,144.41c-7.26-7.26-15.72-12.96-25.14-16.95c-1.94-0.82-3.9-1.56-5.88-2.22
		c1.98-0.66,3.95-1.4,5.88-2.22c9.42-3.98,17.88-9.69,25.14-16.95c7.26-7.26,12.96-15.72,16.95-25.14
		c4.13-9.75,6.22-20.11,6.22-30.79c0-2.21-1.79-4-4-4c-2.21,0-4,1.79-4,4c0,39.2-31.89,71.09-71.09,71.09H92.83c-2.21,0-4,1.79-4,4
		c0,2.21,1.79,4,4,4h41.89c39.2,0,71.09,31.89,71.09,71.09c0,2.21,1.79,4,4,4c2.21,0,4-1.79,4-4c0-10.68-2.09-21.03-6.22-30.79
		C203.6,160.13,197.9,151.67,190.64,144.41z"/>
	<path class="st1" d="M134.71,171.64h-11.08c-2.21,0-4,1.79-4,4s1.79,4,4,4h11.08c11.41,0,20.69,9.28,20.69,20.69c0,2.21,1.79,4,4,4
		c2.21,0,4-1.79,4-4C163.41,184.51,150.54,171.64,134.71,171.64z"/>
	<path class="st0" d="M234.27,124.78c-5.83-0.97-10.98-5.82-12.82-11.43c-0.77-2.61-1.09-10.16-1.09-10.16s-0.29,7.51-1.09,10.16
		c-1.84,5.62-6.99,10.46-12.82,11.43c-0.83,0.16-8.29,0.46-8.29,0.46s7.46,0.31,8.29,0.46c5.83,0.97,10.98,5.82,12.82,11.43
		c0.83,2.86,1.09,10.16,1.09,10.16s0.24-7.22,1.09-10.16c1.84-5.62,6.99-10.46,12.82-11.43c0.83-0.16,8.29-0.46,8.29-0.46
		S235.1,124.94,234.27,124.78z"/>
	<g>
		<path class="st1" d="M32.7,287.55l-8.15-26.59v26.59h-6.03v-57.16c0-1.87,1.27-2.21,1.95-2.29h4.08v21.66l7.48-21.49h6.37
			l-9.6,26.76l10.28,32.53H32.7z"/>
		<path class="st1" d="M80.53,287.55v-21.74c0-2.89-1.53-3.82-3.14-3.82h-3.23v25.57h-6.12v-59.46h11.13c4.08,0,7.47,3.31,7.47,7.47
			v18.35c0,0,0.25,4.67-2.21,5.27c2.38,1.19,2.21,5.61,2.21,5.61v22.76H80.53z M77.38,256.21c1.61,0,3.14-0.68,3.14-3.4v-15.97
			c0-2.21-1.53-3.06-3.14-3.06h-3.23v22.42H77.38z"/>
		<path class="st1" d="M130.9,227.5c4.08,0.17,7.39,3.48,7.39,7.56v45.61c-0.09,4.08-3.31,7.31-7.39,7.48h-4.67
			c-4.16,0-7.56-3.4-7.64-7.48v-45.61c0-4.16,3.4-7.56,7.64-7.56H130.9z M128.86,282.79c1.78,0,3.23-1.44,3.23-3.31v-43.32
			c0-1.87-1.44-3.31-3.23-3.31h-0.93c-1.78,0.09-3.23,1.53-3.23,3.31v43.32c0,1.78,1.44,3.23,3.23,3.31H128.86z"/>
		<path class="st1" d="M191.38,281.52c-0.68,1.53-1.7,3.91-1.95,4.42c-0.42,0.76-1.36,1.61-3.31,1.61h-13.59v-57.76
			c0.09-0.93,0.85-1.7,1.87-1.7h15.88l-2.04,4.42c-0.34,0.76-1.27,1.7-3.23,1.7h-4.93c-0.85,0-1.44,0.59-1.44,1.44v17.67h9.17
			c-0.68,1.53-1.7,3.99-1.95,4.5c-0.42,0.76-1.27,1.61-3.23,1.61h-2.55c-0.76,0-1.44,0.68-1.44,1.44v20.64H191.38z"/>
		<path class="st1" d="M239.71,244.32c0,2.04-0.85,2.89-1.7,3.31c-0.42,0.26-2.8,1.36-4.42,2.04v-13.59c0-1.78-1.44-3.23-3.23-3.23
			c-1.78,0-3.23,1.44-3.23,3.23v43.49c0,1.78,1.44,3.23,3.23,3.23c1.78,0,3.23-1.44,3.23-3.23v-17.75h-0.25
			c-1.36,0-2.21-1.95-2.21-1.95l-2.04-4.25h7.64c1.87,0,2.97,1.02,2.97,3.31v21.66c0,4.08-3.31,7.39-7.39,7.56h-3.74
			c-4.16,0-7.56-3.4-7.56-7.56v-45.53c0-4.16,3.4-7.56,7.56-7.56h3.74c4.08,0.17,7.39,3.48,7.39,7.56V244.32z"/>
		<path class="st1" d="M293.31,281.52c-0.68,1.53-1.7,3.91-1.95,4.42c-0.42,0.76-1.36,1.61-3.31,1.61h-13.59v-57.76
			c0.09-0.93,0.85-1.7,1.87-1.7h15.88l-2.04,4.42c-0.34,0.76-1.27,1.7-3.23,1.7h-4.93c-0.85,0-1.44,0.59-1.44,1.44v17.67h9.17
			c-0.68,1.53-1.7,3.99-1.95,4.5c-0.42,0.76-1.27,1.61-3.23,1.61h-2.55c-0.76,0-1.44,0.68-1.44,1.44v20.64H293.31z"/>
		<path class="st1" d="M335.36,287.55v-21.74c0-2.89-1.53-3.82-3.14-3.82h-3.23v25.57h-6.12v-59.46H334c4.08,0,7.47,3.31,7.47,7.47
			v18.35c0,0,0.25,4.67-2.21,5.27c2.38,1.19,2.21,5.61,2.21,5.61v22.76H335.36z M332.22,256.21c1.61,0,3.14-0.68,3.14-3.4v-15.97
			c0-2.21-1.53-3.06-3.14-3.06h-3.23v22.42H332.22z"/>
	</g>
</g>
</svg>
