<?xml version="1.0" encoding="utf-8"?>
<!-- Generator: Adobe Illustrator 23.1.1, SVG Export Plug-In . SVG Version: 6.00 Build 0)  -->
<svg version="1.1" id="Layer_1" xmlns="http://www.w3.org/2000/svg" xmlns:xlink="http://www.w3.org/1999/xlink" x="0px" y="0px"
	 viewBox="0 0 44.4 44.11" style="enable-background:new 0 0 44.4 44.11;" xml:space="preserve">
<style type="text/css">
	.st0{clip-path:url(#SVGID_2_);fill:#B88E6B;}
</style>
<g>
	<defs>
		<rect id="SVGID_1_" y="0" width="44.4" height="44.11"/>
	</defs>
	<clipPath id="SVGID_2_">
		<use xlink:href="#SVGID_1_"  style="overflow:visible;"/>
	</clipPath>
	<path class="st0" d="M36.11,21.59c-5.83-0.97-10.98-5.82-12.82-11.43C22.51,7.55,22.2,0,22.2,0s-0.29,7.51-1.09,10.16
		c-1.84,5.62-6.99,10.46-12.82,11.43C7.46,21.75,0,22.06,0,22.06s7.45,0.31,8.29,0.46c5.83,0.97,10.98,5.82,12.82,11.43
		c0.83,2.86,1.09,10.16,1.09,10.16s0.24-7.22,1.09-10.16c1.84-5.61,6.99-10.46,12.82-11.43c0.83-0.16,8.29-0.46,8.29-0.46
		S36.94,21.75,36.11,21.59"/>
</g>
</svg>
