<?xml version="1.0" encoding="UTF-8" standalone="no"?><!DOCTYPE svg PUBLIC "-//W3C//DTD SVG 1.1//EN" "http://www.w3.org/Graphics/SVG/1.1/DTD/svg11.dtd"><svg width="100%" height="100%" viewBox="0 0 32 32" version="1.1" xmlns="http://www.w3.org/2000/svg" xmlns:xlink="http://www.w3.org/1999/xlink" xml:space="preserve" xmlns:serif="http://www.serif.com/" style="fill-rule:evenodd;clip-rule:evenodd;stroke-linejoin:round;stroke-miterlimit:2;"><path d="M25.507,15.753c-4.003,-0.664 -7.535,-3.992 -8.797,-7.843c-0.533,-1.789 -0.748,-6.97 -0.748,-6.97c0,0 -0.201,5.155 -0.747,6.97c-1.263,3.851 -4.798,7.179 -8.798,7.843c-0.57,0.107 -5.687,0.317 -5.687,0.317c0,0 5.114,0.209 5.687,0.317c4.003,0.663 7.535,3.991 8.798,7.843c0.573,1.961 0.747,6.97 0.747,6.97c0,0 0.163,-4.957 0.748,-6.97c1.262,-3.852 4.797,-7.18 8.797,-7.843c0.57,-0.108 5.687,-0.317 5.687,-0.317c0,0 -5.117,-0.21 -5.687,-0.317Z" style="fill:#fff;fill-rule:nonzero;stroke:#b78d6b;stroke-width:1px;"/></svg>