<?xml version="1.0" encoding="utf-8"?>
<!-- Generator: Adobe Illustrator 23.1.1, SVG Export Plug-In . SVG Version: 6.00 Build 0)  -->
<svg width="32" height="32" version="1.1" id="Layer_1" xmlns="http://www.w3.org/2000/svg" xmlns:xlink="http://www.w3.org/1999/xlink" x="0px" y="0px"
	 viewBox="0 0 110 110" style="enable-background:new 0 0 110 110;" xml:space="preserve">
<style type="text/css">
	.st0{fill:#B88E6B;}
</style>
<path class="st0" d="M87.68,54.15c-13.76-2.28-25.9-13.72-30.24-26.96c-1.83-6.15-2.57-23.96-2.57-23.96s-0.69,17.72-2.57,23.96
	c-4.34,13.24-16.49,24.68-30.24,26.96c-1.96,0.37-19.55,1.09-19.55,1.09s17.58,0.72,19.55,1.09c13.76,2.28,25.9,13.72,30.24,26.96
	c1.97,6.74,2.57,23.96,2.57,23.96s0.56-17.04,2.57-23.96c4.34-13.24,16.49-24.68,30.24-26.96c1.96-0.37,19.55-1.09,19.55-1.09
	S89.64,54.52,87.68,54.15z"/>
</svg>
