<?xml version="1.0" encoding="utf-8"?>
<!-- Generator: Adobe Illustrator 23.1.1, SVG Export Plug-In . SVG Version: 6.00 Build 0)  -->
<svg version="1.1" id="Layer_1" xmlns="http://www.w3.org/2000/svg" xmlns:xlink="http://www.w3.org/1999/xlink" x="0px" y="0px"
	 viewBox="0 0 20 20" style="enable-background:new 0 0 20 20;" xml:space="preserve">
<style type="text/css">
	.st0{fill:#FFFFFF;}
</style>
<path class="st0" d="M16.09,9.72c-2.54-0.42-4.78-2.53-5.59-4.98c-0.34-1.14-0.47-4.43-0.47-4.43S9.9,3.58,9.56,4.73
	c-0.8,2.45-3.05,4.56-5.59,4.98c-0.36,0.07-3.61,0.2-3.61,0.2s3.25,0.13,3.61,0.2c2.54,0.42,4.78,2.53,5.59,4.98
	c0.36,1.25,0.47,4.43,0.47,4.43s0.1-3.15,0.47-4.43c0.8-2.45,3.05-4.56,5.59-4.98c0.36-0.07,3.61-0.2,3.61-0.2
	S16.46,9.78,16.09,9.72z"/>
</svg>
